<svg width="2243" height="1347" viewBox="0 0 2243 1347" fill="none" xmlns="http://www.w3.org/2000/svg">
<path d="M593.208 633.738L593.208 1183.09L117.457 908.413L593.208 633.738Z" stroke="#EBEBEB"/>
<circle cx="116.739" cy="908.154" r="5" transform="rotate(-30 116.739 908.154)" fill="#F2F2F2"/>
<circle cx="592.896" cy="1182.88" r="5" transform="rotate(-30 592.896 1182.88)" fill="#F2F2F2"/>
<circle cx="593.053" cy="633.153" r="5" transform="rotate(-30 593.053 633.153)" fill="#F2F2F2"/>
<path d="M721.594 75.3812L721.594 331.777L499.549 203.579L721.594 75.3812Z" stroke="#EBEBEB"/>
<path d="M1964.56 747.777L1964.56 491.381L2186.61 619.579L1964.56 747.777Z" stroke="#EBEBEB"/>
<path d="M1608.62 610.624L1132.87 885.299L1132.87 335.95L1608.62 610.624Z" stroke="#EBEBEB"/>
<circle cx="1132.74" cy="335.198" r="5" transform="rotate(30 1132.74 335.198)" fill="#F2F2F2"/>
<circle cx="1132.9" cy="884.926" r="5" transform="rotate(30 1132.9 884.926)" fill="#F2F2F2"/>
<circle cx="1609.05" cy="610.198" r="5" transform="rotate(30 1609.05 610.198)" fill="#F2F2F2"/>
</svg>
