<svg width="33" height="33" fill="none" xmlns="http://www.w3.org/2000/svg"><path d="M10.794 8.44a.633.633 0 00-.444-.184.633.633 0 00-.444.184.634.634 0 00-.184.444c0 .166.067.328.184.445a.633.633 0 00.444.184.633.633 0 00.629-.629.633.633 0 00-.184-.444z"/><path d="M32.611 3.175l-.777-.778.777-.777a.629.629 0 00-.89-.889l-.776.777L30.18.74a.629.629 0 00-.445-.185L19.098.551h-.002c-.84 0-1.63.327-2.224.92l-5.308 5.31a.629.629 0 00.889.889l5.308-5.31c.357-.356.83-.552 1.335-.552h.001l10.377.006.583.583-2.332 2.332a2.579 2.579 0 00-3.144.388 2.559 2.559 0 00-.754 1.821c0 .688.268 1.334.754 1.82a2.567 2.567 0 001.82.754c.66 0 1.32-.251 1.821-.753.85-.85.98-2.152.39-3.14l2.333-2.333.593.594-.006 10.365c0 .504-.197.977-.553 1.334L15.642 30.918c-.356.357-.83.553-1.335.553a1.88 1.88 0 01-1.335-.553L2.425 20.369a1.876 1.876 0 01-.553-1.335c0-.504.197-.978.553-1.335L9.2 10.923a.629.629 0 00-.889-.889L1.536 16.81a3.125 3.125 0 00-.92 2.224c0 .84.326 1.63.92 2.224l10.548 10.549c.613.613 1.418.92 2.223.92.806 0 1.61-.307 2.224-.92l15.337-15.34c.593-.593.92-1.382.921-2.222l.006-10.625a.628.628 0 00-.184-.445zM27.333 7.87c-.249.249-.58.386-.931.386a1.32 1.32 0 010-2.635c.127 0 .254.018.377.054l-.726.726a.629.629 0 00.889.889l.723-.724c.13.448.02.952-.332 1.304z"/><path d="M27.463 13.202L20.14 5.877c-.97-.97-2.55-.97-3.52 0L5.03 17.469a2.473 2.473 0 00-.73 1.76c0 .665.26 1.29.73 1.76l7.324 7.326c.47.47 1.095.729 1.76.729.664 0 1.29-.259 1.76-.729l11.59-11.593c.47-.47.73-1.095.73-1.76s-.26-1.29-.73-1.76zm-.889 2.631l-11.59 11.593c-.233.233-.543.36-.871.36-.33 0-.639-.127-.871-.36L5.917 20.1a1.224 1.224 0 01-.36-.87c0-.33.127-.639.36-.872L17.508 6.766a1.229 1.229 0 011.741 0l7.325 7.325c.233.233.361.542.361.871 0 .33-.128.639-.36.871z"/><path d="M21.11 13.122a.629.629 0 00-.89-.89l-.361.363c-.966-.597-2.206-.517-2.99.267a2.281 2.281 0 00-.658 1.747c.031.647.31 1.265.784 1.74.505.505.562 1.272.126 1.708-.437.436-1.203.38-1.709-.126-.505-.506-.562-1.272-.126-1.709a.629.629 0 00-.888-.889c-.784.784-.864 2.024-.267 2.99l-.43.43a.629.629 0 10.89.89l.429-.43a2.6 2.6 0 001.362.393c.6 0 1.186-.219 1.628-.66.926-.926.87-2.49-.126-3.486a1.39 1.39 0 01-.418-.912 1.038 1.038 0 01.292-.797c.436-.437 1.202-.38 1.708.126s.562 1.272.126 1.708a.629.629 0 00.889.89c.784-.785.864-2.025.267-2.991l.362-.362zm-6.36 10.421l-3.229-3.229a.629.629 0 00-.889.89l3.229 3.228a.627.627 0 00.888 0 .629.629 0 000-.889zm-4.951-4.951a.632.632 0 00-.444-.184.634.634 0 00-.445.184.633.633 0 00.444 1.074.632.632 0 00.63-.629.633.633 0 00-.185-.445z"/></svg>