<svg width="32" height="33" fill="none" xmlns="http://www.w3.org/2000/svg"><path d="M28.555 26.192c.34-.477.54-1.062.54-1.694v-3.776a.624.624 0 00-.619-.629h-2.768c-1.28 0-2.322 1.057-2.322 2.355v2.05c0 .632.201 1.216.54 1.693a3.95 3.95 0 00-1.21.409 5.26 5.26 0 00-3.892-2.353l-.019-.005c.58-.657.933-1.523.933-2.473v-5.132a.624.624 0 00-.62-.629h-3.762c-1.617 0-2.932 1.335-2.932 2.975v2.787c0 .948.353 1.815.933 2.472l-.02.005a5.26 5.26 0 00-3.89 2.353 3.952 3.952 0 00-1.211-.409 2.9 2.9 0 00.54-1.692v-3.777a.624.624 0 00-.619-.629h-2.77c-1.28 0-2.321 1.057-2.321 2.355v2.05c0 .633.201 1.217.541 1.694-1.917.318-3.386 2.01-3.386 4.044v1.862c0 .347.278.628.62.628h30.48c.342 0 .62-.281.62-.628v-1.862c0-2.034-1.469-3.726-3.386-4.044zm-24.25-3.744c0-.605.486-1.098 1.082-1.098h2.15v.766c0 .375-.301.68-.671.68h-2.56v-.348zm0 1.605h2.56c.237 0 .463-.044.671-.123v.569c0 .903-.724 1.639-1.615 1.639s-1.616-.736-1.616-1.64v-.445zm2.015 3.342l-.4.405-.399-.405h.8zm2.237 2.172v1.902H1.46v-1.233c0-1.41 1.018-2.583 2.347-2.803l1.676 1.7a.615.615 0 00.876 0l1.677-1.701c.296.049.58.146.846.287a5.388 5.388 0 00-.325 1.848zm7.524-5.344c-1.333 0-2.418-1.1-2.418-2.453v-.831h3.702c.41 0 .797-.107 1.134-.294v1.125c0 1.352-1.084 2.453-2.418 2.453zm1.08 1.257l-1.08 1.096L15 25.48h2.16zm-3.499-6.497c0-.947.76-1.718 1.694-1.718h3.143v1.266c0 .635-.508 1.15-1.134 1.15h-3.702v-.698zm8.704 12.486H9.796v-1.257h4.034c.342 0 .62-.281.62-.628a.624.624 0 00-.62-.629H9.841c.266-1.786 1.675-3.196 3.445-3.437l2.357 2.39a.613.613 0 00.876 0l2.357-2.39c1.967.268 3.49 1.98 3.49 4.05v1.901zm2.26-9.02c0-.606.485-1.099 1.082-1.099h2.149v.766c0 .375-.301.68-.671.68h-2.56v-.348zm0 1.604h2.56c.236 0 .462-.044.67-.123v.569c0 .903-.724 1.639-1.615 1.639-.89 0-1.616-.736-1.616-1.64v-.445zm2.014 3.342l-.399.405-.4-.405h.8zm-3.035 4.074v-1.902c0-.65-.115-1.272-.325-1.848.265-.142.55-.238.846-.287l1.677 1.701a.615.615 0 00.876 0l1.676-1.7c1.33.22 2.347 1.393 2.347 2.803v1.233h-7.097zM19.134 4.653a.613.613 0 00-.877 0l-3.04 3.085-1.314-1.334a.613.613 0 00-.876 0 .635.635 0 000 .89L14.78 9.07a.615.615 0 00.877 0l3.478-3.529a.635.635 0 000-.889z"/><path d="M18.614 1.092a.616.616 0 00-.818.318.632.632 0 00.314.83c1.796.813 2.957 2.627 2.957 4.622 0 2.79-2.236 5.058-4.986 5.058-2.749 0-4.986-2.269-4.986-5.058 0-1.985 1.153-3.795 2.936-4.612a.632.632 0 00.31-.832.616.616 0 00-.82-.314c-2.226 1.02-3.665 3.28-3.665 5.758 0 3.482 2.793 6.315 6.225 6.315 3.433 0 6.225-2.833 6.225-6.315 0-2.49-1.449-4.755-3.692-5.77z"/><path d="M16.103.547h-.022a.624.624 0 00-.62.628c0 .348.278.629.62.629h.019c.341 0 .618-.28.62-.626a.624.624 0 00-.617-.631zm.416 28.593a.62.62 0 00-.438-.185.62.62 0 00-.438.184.638.638 0 000 .889.62.62 0 00.438.184.62.62 0 00.438-.184.638.638 0 000-.889z"/></svg>