<svg width="30" height="37" fill="none" xmlns="http://www.w3.org/2000/svg"><path d="M3.846 12.364L2.34 10.872a2.065 2.065 0 010-2.938c.818-.81 2.15-.81 2.968 0l1.608 1.592a14.774 14.774 0 015.593-2.341V5.119H11.11c-.386 0-.7-.31-.7-.693V2.625a2.09 2.09 0 012.1-2.078h5.596a2.09 2.09 0 012.1 2.078v1.8a.696.696 0 01-.7.694h-1.4v2.066A14.772 14.772 0 0123.7 9.526l1.609-1.592a2.116 2.116 0 012.968 0c.818.81.818 2.128 0 2.938l-1.507 1.492A14.44 14.44 0 0130 21.465c0 8.02-6.591 14.546-14.692 14.546-8.101 0-14.692-6.525-14.692-14.546a14.44 14.44 0 013.23-9.101zm.473-3.45a.706.706 0 00-.99 0 .689.689 0 000 .979l1.446 1.431a14.84 14.84 0 011.023-.946l-1.48-1.464zm14.487-6.289a.697.697 0 00-.7-.693H12.51c-.386 0-.7.31-.7.693v1.108h6.997V2.625zm-4.898 2.494v1.866a15.201 15.201 0 012.799 0V5.119h-2.799zm13.378 3.795a.706.706 0 00-.99 0l-1.478 1.464c.355.3.697.615 1.022.946l1.446-1.431a.689.689 0 000-.98zM15.308 34.626c7.33 0 13.293-5.904 13.293-13.16a13.07 13.07 0 00-3.305-8.686 13.352 13.352 0 00-9.988-4.475 13.353 13.353 0 00-8.041 2.68c-.705.53-1.36 1.134-1.947 1.795a13.069 13.069 0 00-3.305 8.685c0 7.257 5.963 13.16 13.293 13.16z"/><path d="M15.307 23.543a2.09 2.09 0 01-2.098-2.078c0-.903.584-1.673 1.399-1.959V14.54c0-.383.313-.693.7-.693.386 0 .699.31.699.693v4.967a2.083 2.083 0 011.4 1.96 2.09 2.09 0 01-2.1 2.077zm0-2.77c-.386 0-.7.31-.7.692 0 .382.315.693.7.693.386 0 .7-.31.7-.693a.697.697 0 00-.7-.692z"/><path d="M7.855 14.158a.642.642 0 01.075-.074 10.554 10.554 0 014.41-2.585.7.7 0 01.869.468.692.692 0 01-.473.86 9.146 9.146 0 00-3.342 1.804l.472.467c.273.27.273.71 0 .98a.701.701 0 01-.99 0l-.472-.468a8.874 8.874 0 00-2.165 5.163h.673c.387 0 .7.31.7.692a.696.696 0 01-.7.693H6.24a8.873 8.873 0 002.165 5.163l.473-.469a.705.705 0 01.99 0 .69.69 0 010 .98l-.474.468a9.06 9.06 0 005.215 2.143v-.666c0-.383.313-.693.7-.693.386 0 .7.31.7.693v.666a9.058 9.058 0 005.214-2.143l-.473-.468a.688.688 0 010-.98.705.705 0 01.99 0l.473.469a8.874 8.874 0 002.164-5.163h-.673c-.386 0-.7-.31-.7-.693 0-.382.314-.692.7-.692h.673a8.874 8.874 0 00-2.164-5.163l-.473.468a.701.701 0 01-.99 0 .688.688 0 010-.98l.472-.467a9.14 9.14 0 00-3.341-1.804.691.691 0 01-.473-.86.7.7 0 01.869-.469 10.551 10.551 0 014.409 2.584.723.723 0 01.042.038l.033.037a10.266 10.266 0 013.042 7.308c0 2.755-1.08 5.347-3.041 7.308l-.034.037-.038.034a10.476 10.476 0 01-7.381 3.011 10.476 10.476 0 01-7.381-3.01l-.038-.035-.034-.037a10.266 10.266 0 01-3.042-7.308c0-2.754 1.08-5.347 3.042-7.307z"/><path d="M15.308 12.46c-.386 0-.7-.31-.7-.692 0-.382.313-.693.7-.693.386 0 .7.31.7.693a.696.696 0 01-.7.693z"/></svg>