<svg width="31" height="27" fill="none" xmlns="http://www.w3.org/2000/svg"><path d="M15.77 8.217a.594.594 0 00-.592.596c0 .33.265.596.592.596a.594.594 0 00.592-.596.594.594 0 00-.592-.596z"/><path d="M29.148 11.794h-2.303C25.63 8.302 23.869 2.18 20.677.448c-1.596-.866-3.105-.261-3.672.967a1.34 1.34 0 01-1.235.796 1.34 1.34 0 01-1.236-.796C13.987.23 12.514-.43 10.974.322c-3.242 1.586-5.056 7.954-6.28 11.472H2.391c-.981 0-1.776.8-1.776 1.788 0 .986.797 1.789 1.776 1.789h26.757c.981 0 1.776-.8 1.776-1.789 0-.986-.797-1.788-1.776-1.788zM6.774 9.409h6.628a.594.594 0 00.592-.596.594.594 0 00-.592-.596H7.188c1.784-4.964 3.451-6.406 4.303-6.823.93-.454 1.694-.074 1.97.524a2.522 2.522 0 002.309 1.486c.978 0 1.875-.549 2.308-1.486.284-.615 1.053-.955 2.037-.42.856.464 2.518 1.954 4.236 6.72h-6.214a.594.594 0 00-.591.595c0 .33.265.596.591.596h6.628l.825 2.385H5.95l.825-2.385zm22.374 4.77H2.391a.595.595 0 01-.592-.597c0-.329.265-.596.592-.596h26.757c.326 0 .592.268.592.596a.594.594 0 01-.592.596zm-14.562 3.576H5.114a.594.594 0 00-.592.596v2.385c0 2.958 2.39 5.365 5.328 5.365a5.317 5.317 0 004.98-3.456 2.257 2.257 0 011.88 0 5.317 5.317 0 004.98 3.456c2.937 0 5.327-2.407 5.327-5.365V18.35a.594.594 0 00-.592-.596h-9.471a.594.594 0 00-.592.596v.596h-1.184v-.596a.594.594 0 00-.592-.596zM9.85 24.91c-2.285 0-4.144-1.872-4.144-4.173v-1.788h8.288v1.788c0 2.307-1.85 4.173-4.144 4.173zm7.696-5.961h8.287v1.788c0 2.3-1.859 4.173-4.143 4.173-2.301 0-4.144-1.872-4.144-4.173v-1.788zm-1.184 1.192v.596c0 .19.01.38.03.569a3.441 3.441 0 00-1.245 0c.02-.189.03-.379.03-.57v-.595h1.185z"/><path d="M9.85 22.524c-.98 0-1.776-.802-1.776-1.788a.594.594 0 00-.592-.596.594.594 0 00-.592.596c0 1.643 1.328 2.98 2.96 2.98a.594.594 0 00.592-.596.594.594 0 00-.592-.596zm11.84 1.192c1.632 0 2.96-1.337 2.96-2.98a.594.594 0 00-.592-.596.594.594 0 00-.593.596c0 .986-.796 1.788-1.775 1.788a.594.594 0 00-.592.596c0 .33.265.596.592.596z"/></svg>